<svg xmlns="http://www.w3.org/2000/svg" xmlns:xlink="http://www.w3.org/1999/xlink" width="500" zoomAndPan="magnify" viewBox="0 0 375 374.999991" height="500" preserveAspectRatio="xMidYMid meet" version="1.0"><defs><clipPath id="c8f211b1c2"><path d="M 17.285156 17.285156 L 357.714844 17.285156 L 357.714844 357.714844 L 17.285156 357.714844 Z M 17.285156 17.285156 " clip-rule="nonzero"/></clipPath><clipPath id="ce6d784761"><path d="M 187.5 17.285156 C 93.492188 17.285156 17.285156 93.492188 17.285156 187.5 C 17.285156 281.507812 93.492188 357.714844 187.5 357.714844 C 281.507812 357.714844 357.714844 281.507812 357.714844 187.5 C 357.714844 93.492188 281.507812 17.285156 187.5 17.285156 Z M 187.5 17.285156 " clip-rule="nonzero"/></clipPath></defs><g clip-path="url(#c8f211b1c2)"><g clip-path="url(#ce6d784761)"><path fill="#fdb223" d="M 17.285156 17.285156 L 357.714844 17.285156 L 357.714844 357.714844 L 17.285156 357.714844 Z M 17.285156 17.285156 " fill-opacity="1" fill-rule="nonzero"/></g></g><path stroke-linecap="round" transform="matrix(2.320312, 0, 0, 2.320312, 76.086379, 76.086374)" fill="none" stroke-linejoin="round" d="M 51.999813 33.999814 L 87.999815 33.999814 C 88.262441 33.999814 88.523384 34.025066 88.78096 34.077255 C 89.038536 34.12776 89.287694 34.203518 89.530118 34.304528 C 89.772543 34.405538 90.003182 34.528433 90.222038 34.674898 C 90.440893 34.819679 90.642913 34.986346 90.828098 35.171531 C 91.014967 35.356716 91.17995 35.558737 91.326415 35.777592 C 91.471196 35.996447 91.595775 36.227087 91.695102 36.469511 C 91.796112 36.711935 91.871869 36.962777 91.922374 37.220353 C 91.974563 37.477929 91.999815 37.737188 91.999815 37.999814 L 91.999815 87.999817 C 91.999815 88.262443 91.974563 88.523386 91.922374 88.780962 C 91.871869 89.038538 91.796112 89.287696 91.695102 89.53012 C 91.595775 89.772544 91.471196 90.003184 91.326415 90.222039 C 91.17995 90.440895 91.014967 90.642915 90.828098 90.8281 C 90.642913 91.014969 90.440893 91.179952 90.222038 91.326417 C 90.003182 91.471198 89.772543 91.595777 89.530118 91.695104 C 89.287694 91.796114 89.038536 91.871871 88.78096 91.922376 C 88.523384 91.974565 88.262441 91.999817 87.999815 91.999817 L 51.999813 91.999817 C 51.737187 91.999817 51.477927 91.974565 51.220352 91.922376 C 50.962776 91.871871 50.711934 91.796114 50.46951 91.695104 C 50.227086 91.595777 49.996446 91.471198 49.777591 91.326417 C 49.558735 91.179952 49.356715 91.014969 49.17153 90.8281 C 48.986345 90.642915 48.819678 90.440895 48.674897 90.222039 C 48.528432 90.003184 48.405537 89.772544 48.304527 89.53012 C 48.203516 89.287696 48.127759 89.038538 48.077254 88.780962 C 48.025065 88.523386 47.999813 88.262443 47.999813 87.999817 L 47.999813 37.999814 C 47.999813 37.737188 48.025065 37.477929 48.077254 37.220353 C 48.127759 36.962777 48.203516 36.711935 48.304527 36.469511 C 48.405537 36.227087 48.528432 35.996447 48.674897 35.777592 C 48.819678 35.558737 48.986345 35.356716 49.17153 35.171531 C 49.356715 34.986346 49.558735 34.819679 49.777591 34.674898 C 49.996446 34.528433 50.227086 34.405538 50.46951 34.304528 C 50.711934 34.203518 50.962776 34.12776 51.220352 34.077255 C 51.477927 34.025066 51.737187 33.999814 51.999813 33.999814 Z M 51.999813 33.999814 " stroke="#182e49" stroke-width="2" stroke-opacity="1" stroke-miterlimit="4"/><path stroke-linecap="round" transform="matrix(2.320312, 0, 0, 2.320312, 76.086379, 76.086374)" fill="none" stroke-linejoin="round" d="M 52.999813 39.999814 L 86.999815 39.999814 L 86.999815 52.999815 L 52.999813 52.999815 Z M 52.999813 39.999814 " stroke="#182e49" stroke-width="2" stroke-opacity="1" stroke-miterlimit="4"/><path stroke-linecap="round" transform="matrix(2.320312, 0, 0, 2.320312, 76.086379, 76.086374)" fill="none" stroke-linejoin="round" d="M 80.999815 76.999816 L 86.999815 76.999816 L 86.999815 86.999817 L 80.999815 86.999817 Z M 80.999815 76.999816 " stroke="#182e49" stroke-width="2" stroke-opacity="1" stroke-miterlimit="4"/><path stroke-linecap="round" transform="matrix(2.320312, 0, 0, 2.320312, 76.086379, 76.086374)" fill="none" stroke-linejoin="round" d="M 80.999815 66.999816 L 86.999815 66.999816 L 86.999815 72.999816 L 80.999815 72.999816 Z M 80.999815 66.999816 " stroke="#182e49" stroke-width="2" stroke-opacity="1" stroke-miterlimit="4"/><path stroke-linecap="round" transform="matrix(2.320312, 0, 0, 2.320312, 76.086379, 76.086374)" fill="none" stroke-linejoin="round" d="M 80.999815 57.999815 L 86.999815 57.999815 L 86.999815 63.999816 L 80.999815 63.999816 Z M 80.999815 57.999815 " stroke="#182e49" stroke-width="2" stroke-opacity="1" stroke-miterlimit="4"/><path stroke-linecap="round" transform="matrix(2.320312, 0, 0, 2.320312, 76.086379, 76.086374)" fill="none" stroke-linejoin="round" d="M 52.999813 70.999816 L 58.999813 70.999816 L 58.999813 76.999816 L 52.999813 76.999816 Z M 52.999813 70.999816 " stroke="#182e49" stroke-width="2" stroke-opacity="1" stroke-miterlimit="4"/><path stroke-linecap="round" transform="matrix(2.320312, 0, 0, 2.320312, 76.086379, 76.086374)" fill="none" stroke-linejoin="round" d="M 52.999813 61.999816 L 58.999813 61.999816 L 58.999813 67.999816 L 52.999813 67.999816 Z M 52.999813 61.999816 " stroke="#182e49" stroke-width="2" stroke-opacity="1" stroke-miterlimit="4"/><path stroke-linecap="round" transform="matrix(2.320312, 0, 0, 2.320312, 76.086379, 76.086374)" fill="none" stroke-linejoin="round" d="M 61.999814 70.999816 L 67.999814 70.999816 L 67.999814 76.999816 L 61.999814 76.999816 Z M 61.999814 70.999816 " stroke="#182e49" stroke-width="2" stroke-opacity="1" stroke-miterlimit="4"/><path stroke-linecap="round" transform="matrix(2.320312, 0, 0, 2.320312, 76.086379, 76.086374)" fill="none" stroke-linejoin="round" d="M 61.999814 61.999816 L 67.999814 61.999816 L 67.999814 67.999816 L 61.999814 67.999816 Z M 61.999814 61.999816 " stroke="#182e49" stroke-width="2" stroke-opacity="1" stroke-miterlimit="4"/><path stroke-linecap="round" transform="matrix(2.320312, 0, 0, 2.320312, 76.086379, 76.086374)" fill="none" stroke-linejoin="round" d="M 70.999814 70.999816 L 76.999815 70.999816 L 76.999815 76.999816 L 70.999814 76.999816 Z M 70.999814 70.999816 " stroke="#182e49" stroke-width="2" stroke-opacity="1" stroke-miterlimit="4"/><path stroke-linecap="round" transform="matrix(2.320312, 0, 0, 2.320312, 76.086379, 76.086374)" fill="none" stroke-linejoin="round" d="M 52.999813 80.999817 L 58.999813 80.999817 L 58.999813 86.999817 L 52.999813 86.999817 Z M 52.999813 80.999817 " stroke="#182e49" stroke-width="2" stroke-opacity="1" stroke-miterlimit="4"/><path stroke-linecap="round" transform="matrix(2.320312, 0, 0, 2.320312, 76.086379, 76.086374)" fill="none" stroke-linejoin="round" d="M 61.999814 80.999817 L 67.999814 80.999817 L 67.999814 86.999817 L 61.999814 86.999817 Z M 61.999814 80.999817 " stroke="#182e49" stroke-width="2" stroke-opacity="1" stroke-miterlimit="4"/><path stroke-linecap="round" transform="matrix(2.320312, 0, 0, 2.320312, 76.086379, 76.086374)" fill="none" stroke-linejoin="round" d="M 70.999814 80.999817 L 76.999815 80.999817 L 76.999815 86.999817 L 70.999814 86.999817 Z M 70.999814 80.999817 " stroke="#182e49" stroke-width="2" stroke-opacity="1" stroke-miterlimit="4"/><path stroke-linecap="round" transform="matrix(2.320312, 0, 0, 2.320312, 76.086379, 76.086374)" fill="none" stroke-linejoin="round" d="M 70.999814 61.999816 L 76.999815 61.999816 L 76.999815 67.999816 L 70.999814 67.999816 Z M 70.999814 61.999816 " stroke="#182e49" stroke-width="2" stroke-opacity="1" stroke-miterlimit="4"/><path stroke-linecap="round" transform="matrix(2.320312, 0, 0, 2.320312, 76.086379, 76.086374)" fill="none" stroke-linejoin="round" d="M 76.999815 57.999815 L 70.999814 57.999815 " stroke="#182e49" stroke-width="2" stroke-opacity="1" stroke-miterlimit="4"/><path stroke-linecap="round" transform="matrix(2.320312, 0, 0, 2.320312, 76.086379, 76.086374)" fill="none" stroke-linejoin="round" d="M 67.999814 57.999815 L 61.999814 57.999815 " stroke="#182e49" stroke-width="2" stroke-opacity="1" stroke-miterlimit="4"/><path stroke-linecap="round" transform="matrix(2.320312, 0, 0, 2.320312, 76.086379, 76.086374)" fill="none" stroke-linejoin="round" d="M 58.999813 57.999815 L 52.999813 57.999815 " stroke="#182e49" stroke-width="2" stroke-opacity="1" stroke-miterlimit="4"/><path stroke-linecap="round" transform="matrix(2.320312, 0, 0, 2.320312, 76.086379, 76.086374)" fill="none" stroke-linejoin="round" d="M 47.999813 85.999817 C 47.999813 85.999817 42.999812 78.999817 28.999812 78.999817 C 14.999811 78.999817 3.99981 87.999817 3.99981 87.999817 L 3.99981 16.999813 C 3.99981 16.999813 14.999811 7.999812 28.999812 7.999812 C 42.999812 7.999812 47.999813 14.999813 47.999813 14.999813 L 47.999813 37.999814 " stroke="#182e49" stroke-width="2" stroke-opacity="1" stroke-miterlimit="4"/><path stroke-linecap="round" transform="matrix(2.320312, 0, 0, 2.320312, 76.086379, 76.086374)" fill="none" stroke-linejoin="round" d="M 43.10924 71.43921 C 43.10924 71.43921 39.220351 65.999816 28.329778 65.999816 C 17.439205 65.999816 8.890383 72.999816 8.890383 72.999816 " stroke="#182e49" stroke-width="2" stroke-opacity="1" stroke-miterlimit="4"/><path stroke-linecap="round" transform="matrix(2.320312, 0, 0, 2.320312, 76.086379, 76.086374)" fill="none" stroke-linejoin="round" d="M 43.10924 61.439209 C 43.10924 61.439209 39.220351 55.999815 28.329778 55.999815 C 17.439205 55.999815 8.890383 62.999816 8.890383 62.999816 " stroke="#182e49" stroke-width="2" stroke-opacity="1" stroke-miterlimit="4"/><path stroke-linecap="round" transform="matrix(2.320312, 0, 0, 2.320312, 76.086379, 76.086374)" fill="none" stroke-linejoin="round" d="M 43.10924 51.439209 C 43.10924 51.439209 39.220351 45.999815 28.329778 45.999815 C 17.439205 45.999815 8.890383 52.999815 8.890383 52.999815 " stroke="#182e49" stroke-width="2" stroke-opacity="1" stroke-miterlimit="4"/><path stroke-linecap="round" transform="matrix(2.320312, 0, 0, 2.320312, 76.086379, 76.086374)" fill="none" stroke-linejoin="round" d="M 8.890383 42.999814 C 8.890383 42.999814 17.439205 35.999814 28.329778 35.999814 C 39.220351 35.999814 43.10924 41.439208 43.10924 41.439208 L 43.10924 21.439207 C 43.10924 21.439207 39.220351 15.999813 28.329778 15.999813 C 17.439205 15.999813 8.890383 22.999813 8.890383 22.999813 Z M 8.890383 42.999814 " stroke="#182e49" stroke-width="2" stroke-opacity="1" stroke-miterlimit="4"/><path stroke-linecap="round" transform="matrix(2.320312, 0, 0, 2.320312, 76.086379, 76.086374)" fill="none" stroke-linejoin="round" d="M 87.999815 22.999813 C 87.999815 22.999813 79.439209 15.999813 68.56042 15.999813 C 57.679948 15.999813 53.779274 21.439207 53.779274 21.439207 " stroke="#182e49" stroke-width="2" stroke-opacity="1" stroke-miterlimit="4"/><path stroke-linecap="round" transform="matrix(2.320312, 0, 0, 2.320312, 76.086379, 76.086374)" fill="none" stroke-linejoin="round" d="M 53.779274 29.439208 C 53.779274 29.439208 57.669847 23.999813 68.56042 23.999813 C 79.44931 23.999813 87.999815 30.999814 87.999815 30.999814 " stroke="#182e49" stroke-width="2" stroke-opacity="1" stroke-miterlimit="4"/><path stroke-linecap="round" transform="matrix(2.320312, 0, 0, 2.320312, 76.086379, 76.086374)" fill="none" stroke-linejoin="round" d="M 91.999815 87.999817 L 91.999815 16.999813 C 91.999815 16.999813 80.999815 7.999812 66.999814 7.999812 C 52.999813 7.999812 47.999813 14.999813 47.999813 14.999813 L 47.999813 37.999814 " stroke="#182e49" stroke-width="2" stroke-opacity="1" stroke-miterlimit="4"/><path stroke-linecap="round" transform="matrix(2.320312, 0, 0, 2.320312, 76.086379, 76.086374)" fill="none" stroke-linejoin="round" d="M 47.999813 87.999817 C 47.999813 87.999817 34.999812 76.999816 7.99981 91.999817 L 7.99981 85.999817 " stroke="#182e49" stroke-width="2" stroke-opacity="1" stroke-miterlimit="4"/></svg>